<svg width="122" height="122" viewBox="0 0 122 122" fill="none" xmlns="http://www.w3.org/2000/svg">
<rect width="122" height="122" rx="32" fill="#FF4EAF"/>
<path d="M60.5 23C66.7132 23 71.75 28.0368 71.75 34.25V41.0145L77.6083 37.6322C82.9891 34.5256 89.8695 36.3692 92.9761 41.75C96.0827 47.1308 94.2391 54.0112 88.8583 57.1178L83 60.5001L88.8581 63.8822C94.2389 66.9888 96.0825 73.8692 92.9759 79.25C89.8693 84.6308 82.9889 86.4744 77.6081 83.3678L71.75 79.9857V86.75C71.75 92.9632 66.7132 98 60.5 98C54.2868 98 49.25 92.9632 49.25 86.75V79.9857L43.3919 83.3678C38.0112 86.4744 31.1308 84.6308 28.0242 79.25C24.9176 73.8692 26.7612 66.9888 32.1419 63.8822L38 60.5001L32.1418 57.1178C26.761 54.0112 24.9174 47.1308 28.024 41.75C31.1306 36.3692 38.011 34.5256 43.3918 37.6322L49.25 41.0145V34.25C49.25 28.0368 54.2868 23 60.5 23Z" fill="white"/>
<circle cx="60.5" cy="60.5" r="15" fill="#FF4EAF" stroke="#FF4EAF"/>
</svg>
