<svg width="28" height="28" viewBox="0 0 28 28" fill="none" xmlns="http://www.w3.org/2000/svg">
<rect width="28" height="28" fill="white"/>
<path d="M14 4C15.6568 4 17 5.34315 17 7V8.80387L18.5622 7.90193C19.997 7.0735 21.8318 7.56513 22.6602 9.00001C23.4887 10.4349 22.997 12.2697 21.5622 13.0981L20 14L21.5621 14.9019C22.997 15.7304 23.4886 17.5651 22.6602 19C21.8318 20.4349 19.997 20.9265 18.5621 20.0981L17 19.1962V21C17 22.6569 15.6568 24 14 24C12.3431 24 11 22.6569 11 21V19.1962L9.4378 20.0981C8.00293 20.9265 6.16816 20.4349 5.33973 19C4.5113 17.5651 5.00293 15.7304 6.4378 14.9019L7.99996 14L6.43776 13.0981C5.00288 12.2697 4.51125 10.4349 5.33968 9.00001C6.16811 7.56513 8.00288 7.0735 9.43776 7.90193L11 8.80387V7C11 5.34315 12.3431 4 14 4Z" stroke="#767676" stroke-linejoin="round"/>
<circle cx="14" cy="14" r="4" stroke="#767676"/>
</svg>
