<svg width="28" height="28" viewBox="0 0 28 28" fill="none" xmlns="http://www.w3.org/2000/svg">
<path fill-rule="evenodd" clip-rule="evenodd" d="M10.5 7C10.5 5.067 12.067 3.5 14 3.5C15.933 3.5 17.5 5.067 17.5 7V7.93784L18.3122 7.46892C19.9862 6.50242 22.1268 7.07598 23.0933 8.75001C24.0598 10.424 23.4862 12.5646 21.8122 13.5311L21 14L21.8122 14.4689C23.4862 15.4354 24.0597 17.576 23.0932 19.25C22.1267 20.924 19.9862 21.4976 18.3122 20.5311L17.5 20.0622V21C17.5 22.933 15.933 24.5 14 24.5C12.067 24.5 10.5 22.933 10.5 21V20.0622L9.68784 20.5311C8.01382 21.4976 5.87325 20.924 4.90675 19.25C3.94026 17.576 4.51382 15.4354 6.18784 14.4689L7 14L6.18779 13.5311C4.51377 12.5646 3.94021 10.424 4.90671 8.75001C5.8732 7.07598 8.01377 6.50242 9.68779 7.46892L10.5 7.93784V7ZM14 4.5C12.6193 4.5 11.5 5.61929 11.5 7V8.80387C11.5 8.9825 11.4047 9.14757 11.25 9.23688C11.0953 9.3262 10.9047 9.3262 10.75 9.23688L9.18779 8.33494C7.99206 7.64459 6.46309 8.05428 5.77273 9.25001C5.08237 10.4457 5.49206 11.9747 6.68779 12.6651L8.25 13.567C8.4047 13.6563 8.5 13.8214 8.5 14C8.5 14.1787 8.4047 14.3437 8.25 14.433L6.68784 15.3349C5.49211 16.0253 5.08242 17.5543 5.77278 18.75C6.46313 19.9457 7.99211 20.3554 9.18784 19.6651L10.75 18.7632C10.9047 18.6738 11.0953 18.6738 11.25 18.7632C11.4047 18.8525 11.5 19.0175 11.5 19.1962V21C11.5 22.3807 12.6193 23.5 14 23.5C15.3807 23.5 16.5 22.3807 16.5 21V19.1962C16.5 19.0175 16.5953 18.8525 16.75 18.7632C16.9047 18.6738 17.0953 18.6738 17.25 18.7632L18.8122 19.6651C20.0079 20.3554 21.5369 19.9457 22.2272 18.75C22.9176 17.5543 22.5079 16.0253 21.3122 15.3349L19.75 14.433C19.5953 14.3437 19.5 14.1787 19.5 14C19.5 13.8214 19.5953 13.6563 19.75 13.567L21.3122 12.6651C22.5079 11.9747 22.9176 10.4457 22.2273 9.25001C21.5369 8.05428 20.0079 7.64459 18.8122 8.33494L17.25 9.23688C17.0953 9.3262 16.9047 9.3262 16.75 9.23688C16.5953 9.14756 16.5 8.9825 16.5 8.80387V7C16.5 5.61929 15.3807 4.5 14 4.5Z" fill="#FF4EAF"/>
<path fill-rule="evenodd" clip-rule="evenodd" d="M17 7C17 5.34315 15.6569 4 14 4C12.3432 4 11 5.34315 11 7V8.80387L9.4378 7.90193C8.00292 7.0735 6.16815 7.56513 5.33973 9.00001C4.5113 10.4349 5.00292 12.2697 6.4378 13.0981L8 14L6.43785 14.9019C5.00297 15.7304 4.51135 17.5651 5.33977 19C6.1682 20.4349 8.00297 20.9265 9.43785 20.0981L11 19.1962V21C11 22.6569 12.3432 24 14 24C15.6569 24 17 22.6569 17 21V19.1962L18.5622 20.0981C19.997 20.9265 21.8318 20.4349 22.6602 19C23.4887 17.5651 22.997 15.7304 21.5622 14.9019L20 14L21.5622 13.0981C22.9971 12.2697 23.4887 10.4349 22.6603 9.00001C21.8319 7.56513 19.9971 7.0735 18.5622 7.90193L17 8.80387V7ZM14 18C16.2091 18 18 16.2091 18 14C18 11.7909 16.2091 10 14 10C11.7909 10 10 11.7909 10 14C10 16.2091 11.7909 18 14 18Z" fill="#FF4EAF"/>
</svg>
