<svg width="28" height="28" viewBox="0 0 28 28" fill="none" xmlns="http://www.w3.org/2000/svg">
<rect width="28" height="28" fill="white"/>
<path d="M14 4C15.6569 4 17 5.34315 17 7V8.80387L18.5622 7.90193C19.9971 7.0735 21.8319 7.56513 22.6603 9.00001C23.4887 10.4349 22.9971 12.2697 21.5622 13.0981L20 14L21.5622 14.9019C22.9971 15.7304 23.4887 17.5651 22.6602 19C21.8318 20.4349 19.9971 20.9265 18.5622 20.0981L17 19.1962V21C17 22.6569 15.6569 24 14 24C12.3432 24 11 22.6569 11 21V19.1962L9.43787 20.0981C8.00299 20.9265 6.16822 20.4349 5.33979 19C4.51136 17.5651 5.00299 15.7304 6.43787 14.9019L8.00002 14L6.43782 13.0981C5.00294 12.2697 4.51131 10.4349 5.33974 9.00001C6.16817 7.56513 8.00294 7.0735 9.43782 7.90193L11 8.80387V7C11 5.34315 12.3432 4 14 4Z" fill="#FF4EAF" stroke="#FF4EAF" stroke-linejoin="round"/>
<circle cx="14" cy="14" r="4" fill="white" stroke="#FF4EAF"/>
</svg>
